<svg width="51" height="9" viewBox="0 0 51 9" fill="none" xmlns="http://www.w3.org/2000/svg">
<path d="M24.9511 8.30456C24.6235 7.62236 24.2904 6.94195 23.9574 6.26154C23.8548 6.05094 23.718 5.86373 23.547 5.70353C23.3328 5.50553 23.349 5.32733 23.6028 5.17432C24.0456 4.90792 24.3588 4.52992 24.5478 4.05291C24.8413 3.3167 24.8467 2.56249 24.6307 1.81008C24.3966 0.994671 23.844 0.501465 23.0286 0.289062C22.71 0.206261 22.386 0.17386 22.0602 0.17026C20.9928 0.16126 19.9254 0.16486 18.858 0.16846C18.5556 0.16846 18.4512 0.280062 18.4512 0.580666C18.4512 1.89108 18.4512 3.2015 18.4512 4.51192C18.4512 5.82233 18.4512 7.13275 18.4512 8.44317C18.4512 8.75097 18.5556 8.85897 18.8688 8.86437C19.1946 8.86797 19.5204 8.86257 19.848 8.86617C20.235 8.87157 20.4168 8.82657 20.4042 8.32436C20.3862 7.54495 20.3988 6.76554 20.4006 5.98614C20.4006 5.77913 20.4744 5.66933 20.631 5.63153C21.1278 5.50913 21.5598 5.72513 21.7758 6.18954C22.1448 6.98695 22.5246 7.77896 22.8918 8.57817C22.9854 8.78157 23.124 8.86977 23.3436 8.86797C23.7576 8.86257 24.1734 8.86797 24.5875 8.86617C24.9727 8.86257 25.1149 8.64837 24.9511 8.30456ZM22.8864 3.1133C22.8324 3.6047 22.5462 3.84591 22.0008 3.87111C21.5544 3.89271 21.1062 3.88011 20.6598 3.87651C20.4906 3.87471 20.3988 3.77931 20.3934 3.6029C20.3862 3.3707 20.3916 3.1385 20.3916 2.9063C20.3916 2.67409 20.3898 2.44189 20.3916 2.20969C20.3934 2.05848 20.4672 1.94148 20.622 1.93608C21.1134 1.92168 21.6066 1.89108 22.0944 1.95048C22.7442 2.03148 22.962 2.43469 22.8864 3.1133Z" fill="white"/>
<path d="M15.4479 5.43454C15.4479 6.42455 15.4479 7.41456 15.4479 8.40458C15.4479 8.74658 15.3327 8.86178 14.9907 8.86358C14.6306 8.86538 14.2724 8.86538 13.9124 8.86358C13.529 8.86178 13.4174 8.75198 13.4174 8.36858C13.4156 6.42815 13.4174 4.48593 13.4174 2.5455C13.4174 2.4897 13.4174 2.4357 13.4174 2.3799C13.4138 2.1387 13.3184 2.03969 13.0736 2.03789C12.5822 2.03429 12.089 2.03789 11.5976 2.03609C11.306 2.03609 11.1926 1.92629 11.1908 1.64009C11.189 1.28549 11.189 0.932681 11.1908 0.578076C11.1926 0.299073 11.315 0.167671 11.5958 0.167671C13.4876 0.165871 15.3777 0.165871 17.2695 0.167671C17.5683 0.167671 17.6799 0.286472 17.6799 0.581676C17.6817 0.936281 17.6817 1.28909 17.6799 1.64369C17.6781 1.93169 17.5755 2.03609 17.2929 2.03609C16.8069 2.03789 16.3191 2.03609 15.8331 2.03609C15.5523 2.03609 15.4533 2.1351 15.4533 2.4141C15.4479 3.42031 15.4479 4.42833 15.4479 5.43454Z" fill="white"/>
<path d="M11.7498 8.79562C11.5608 8.79562 11.3736 8.79562 11.1864 8.79562C10.9866 8.79562 10.8552 8.70742 10.785 8.51481C10.6338 8.09361 10.4682 7.6778 10.317 7.2548C10.254 7.0784 10.1442 7.0064 9.95699 7.0064C9.04438 7.0118 8.13177 7.00819 7.21916 7.00819C6.99236 7.00819 6.92755 7.055 6.84835 7.2638C6.69535 7.6724 6.54415 8.08281 6.39115 8.49141C6.30475 8.72182 6.21295 8.79202 5.97354 8.79382C5.59194 8.79742 5.21033 8.79922 4.82873 8.79382C4.48672 8.79022 4.35352 8.58142 4.48132 8.26281C4.62893 7.89381 4.78193 7.5266 4.92593 7.154C4.97093 7.0406 5.03393 6.99559 5.15813 6.99199C6.31915 6.94879 7.25336 6.45379 7.95357 5.53398C8.10477 5.33417 8.26317 5.24057 8.50977 5.26217C8.69698 5.27837 8.88598 5.26577 9.07318 5.26577C9.40619 5.26397 9.51959 5.10917 9.40619 4.80137C9.18658 4.20376 8.96518 3.60975 8.74198 3.01394C8.67898 2.84294 8.62318 2.67014 8.57998 2.49194C8.43597 1.90153 8.16597 1.37232 7.74657 0.929517C7.57916 0.751315 7.57376 0.580312 7.66196 0.37151C7.74837 0.166307 7.89777 0.0943061 8.10657 0.0979061C8.39997 0.101506 8.69338 0.0979061 8.98498 0.0997061C9.29098 0.101506 9.36839 0.151907 9.48359 0.43631C10.1442 2.06533 10.803 3.69435 11.4618 5.32337C11.856 6.29719 12.2502 7.271 12.6462 8.24301C12.7866 8.58862 12.6534 8.79202 12.2772 8.79562C12.1026 8.79742 11.9262 8.79562 11.7498 8.79562Z" fill="white"/>
<path d="M27.9247 4.51968C27.9247 5.81389 27.9247 7.10811 27.9247 8.40233C27.9247 8.74793 27.8149 8.86133 27.4693 8.86313C27.0985 8.86493 26.7277 8.86493 26.3587 8.86313C26.0473 8.86133 25.9213 8.73713 25.9213 8.43113C25.9195 5.81569 25.9195 3.20026 25.9213 0.584826C25.9213 0.298622 26.0491 0.170821 26.3389 0.169021C26.7205 0.165421 27.1021 0.165421 27.4837 0.169021C27.8095 0.170821 27.9247 0.286022 27.9247 0.608226C27.9247 1.90964 27.9247 3.21466 27.9247 4.51968Z" fill="white"/>
<path d="M32.6658 8.99468C32.1906 8.91728 31.7208 8.81467 31.287 8.59687C29.8524 7.87686 29.0082 6.71405 28.7742 5.13363C28.4448 2.898 29.9208 0.574168 32.4768 0.176363C34.1526 -0.0846403 35.571 0.469767 36.6493 1.81078C36.6835 1.85398 36.7141 1.90079 36.7447 1.94579C36.8077 2.03759 36.7789 2.10599 36.6961 2.17079C36.6169 2.23199 36.5557 2.28599 36.4531 2.19959C36.3073 2.07719 36.1849 1.93679 36.0589 1.79638C35.3028 0.961173 34.3344 0.527368 33.2364 0.525568C31.7316 0.521968 30.522 1.15918 29.7264 2.47499C29.3394 3.114 29.091 3.80701 29.1252 4.56482C29.2296 6.83825 30.6876 8.22067 32.52 8.53027C34.0338 8.78587 35.3208 8.28187 36.3001 7.06865C36.3271 7.03445 36.3559 7.00025 36.3865 6.96965C36.4819 6.87605 36.5917 6.85625 36.6979 6.94265C36.8077 7.03265 36.7771 7.13525 36.7051 7.23605C36.3595 7.71486 35.9184 8.08567 35.4144 8.38627C34.9014 8.69227 34.347 8.89028 33.7602 8.99288C33.3966 8.99468 33.0312 8.99468 32.6658 8.99468Z" fill="white"/>
<path d="M29.8444 4.25253C29.8516 6.01116 30.7624 7.30897 32.1646 7.72658C33.3472 8.07758 34.7638 7.85978 35.6548 6.74557C35.6998 6.68977 35.7448 6.63397 35.7952 6.58176C35.9266 6.44136 35.9896 6.44496 36.1246 6.57456C36.211 6.65916 36.2002 6.72577 36.1318 6.81577C35.527 7.61678 34.7314 8.11538 33.7396 8.26299C32.683 8.41959 31.7146 8.16758 30.8668 7.51598C30.0334 6.87697 29.5762 6.02016 29.4664 4.97614C29.3692 4.05633 29.5528 3.20132 30.073 2.43451C30.7174 1.4823 31.6408 0.980093 32.7712 0.850491C33.9646 0.713689 34.9834 1.08629 35.824 1.9431C35.9518 2.07271 36.0562 2.22391 36.1732 2.36431C36.2416 2.44531 36.2092 2.50471 36.139 2.56051C36.0706 2.61631 36.0166 2.71712 35.9032 2.62711C35.8186 2.56051 35.7556 2.47951 35.6854 2.40031C35.1958 1.8567 34.6126 1.4715 33.8854 1.3185C32.746 1.07909 31.738 1.3545 30.8974 2.13751C30.2206 2.76752 29.8732 3.57753 29.8444 4.25253Z" fill="white"/>
<path d="M33.0546 7.60892C31.6164 7.60892 30.2988 6.3669 30.162 4.80808C30.0288 3.29246 31.0602 1.92805 32.475 1.60044C33.636 1.33044 34.8348 1.74984 35.499 2.66966C35.5152 2.69306 35.535 2.71286 35.5458 2.73806C35.5728 2.80466 35.6844 2.88026 35.5602 2.94326C35.4612 2.99366 35.355 3.11426 35.2308 2.95406C34.8168 2.41765 34.2624 2.12245 33.6018 1.98745C32.1024 1.68324 30.7794 2.86226 30.5886 4.12767C30.369 5.59109 31.314 6.91951 32.772 7.14631C33.7242 7.29391 34.5234 6.96991 35.1534 6.2409C35.3172 6.0519 35.3964 6.0303 35.5314 6.1491C35.625 6.2319 35.6034 6.3057 35.5458 6.3939C35.2632 6.82411 34.8708 7.12111 34.41 7.32991C34.0122 7.50992 33.5964 7.61432 33.0546 7.60892Z" fill="white"/>
<path d="M33.1296 2.24036C33.8856 2.24036 34.4652 2.52836 34.926 3.06657C34.9962 3.14937 35.0862 3.23937 34.9512 3.34557C34.8414 3.43377 34.755 3.46977 34.6362 3.32937C33.9432 2.50856 32.7696 2.52656 32.136 2.95137C31.4574 3.40677 31.146 4.17358 31.3188 5.00699C31.47 5.7306 32.0964 6.33541 32.8542 6.45241C33.558 6.56041 34.1484 6.31201 34.629 5.8008C34.7244 5.7 34.7964 5.6316 34.9242 5.7558C35.0412 5.871 35.052 5.934 34.9206 6.07801C34.2654 6.79981 33.4572 7.06442 32.523 6.78361C31.5798 6.49921 31.011 5.8386 30.876 4.85939C30.7014 3.59577 31.5636 2.47076 32.8254 2.26376C32.9406 2.24396 33.0576 2.24396 33.1296 2.24036Z" fill="white"/>
<path d="M37.3134 8.99415C37.3098 8.94555 37.3044 8.89515 37.3044 8.84475C37.3044 5.97551 37.3044 3.10448 37.3008 0.233441C37.3008 0.0750388 37.3476 0.0192381 37.5078 0.0210381C37.668 0.0228381 37.6842 0.107439 37.6878 0.231641C37.7544 2.92447 37.7184 5.61731 37.7112 8.31014C37.7112 8.47575 37.6896 8.64135 37.6896 8.80695C37.6896 8.91315 37.6482 8.97255 37.5456 8.99235C37.4664 8.99415 37.3908 8.99415 37.3134 8.99415Z" fill="white"/>
<path d="M38.8048 4.51344C38.8048 3.09322 38.8048 1.6712 38.8048 0.250987C38.8048 0.0349838 38.848 0.00258339 39.0622 0.0277837C39.1432 0.0367838 39.1738 0.0745843 39.1846 0.153785C39.2116 0.351788 39.2098 0.55159 39.2134 0.749593C39.262 3.09322 39.2512 5.43685 39.235 7.78048C39.2332 8.10089 39.2206 8.42129 39.2116 8.7417C39.2062 8.9613 39.19 8.9631 38.9884 8.9757C38.7958 8.9883 38.8048 8.8713 38.8048 8.74349C38.8066 7.33228 38.8048 5.92286 38.8048 4.51344Z" fill="white"/>
<path d="M39.5352 4.48647C39.5352 3.18865 39.5352 1.88904 39.537 0.589421C39.537 0.463419 39.5514 0.335618 39.564 0.209616C39.5748 0.0908147 39.6432 0.033214 39.7638 0.035014C39.888 0.0368141 39.9096 0.110615 39.9168 0.220416C39.9618 0.816224 39.9402 1.41383 39.9456 2.00964C39.9564 3.29666 39.9816 4.58367 39.9636 5.87069C39.951 6.7995 39.9618 7.72651 39.9366 8.65532C39.9348 8.71113 39.9276 8.76513 39.924 8.82093C39.9168 8.91273 39.8934 8.97933 39.7764 8.97213C39.6648 8.96493 39.5784 8.93613 39.564 8.81193C39.5496 8.68052 39.537 8.54732 39.537 8.41592C39.5352 7.1055 39.5352 5.79689 39.5352 4.48647Z" fill="white"/>
<path d="M38.4418 4.50657C38.4418 5.91599 38.4418 7.3254 38.4418 8.73482C38.4418 8.94002 38.4094 8.97242 38.2366 8.97242C38.1286 8.97242 38.0692 8.92382 38.053 8.82122C38.0422 8.74562 38.035 8.66822 38.035 8.59082C38.0332 5.86558 38.0332 3.14215 38.0332 0.416914C38.0332 0.350314 38.0368 0.283713 38.044 0.218912C38.062 0.0857101 38.1448 0.0317094 38.2744 0.0371095C38.4166 0.0407096 38.44 0.125311 38.44 0.247712C38.4418 1.66613 38.4418 3.08635 38.4418 4.50657Z" fill="white"/>
<path d="M47.7192 8.97494C47.4438 8.97854 47.4456 8.97854 47.3358 8.70133C46.3278 6.1291 45.3198 3.55507 44.31 0.982834C44.2794 0.907233 44.2812 0.772231 44.184 0.777631C44.094 0.783032 44.0598 0.907233 44.0256 0.993634C43.6404 1.97105 43.2534 2.94666 42.8717 3.92407C42.6539 4.48388 42.4739 4.82588 42.2597 5.38569C42.2399 5.43789 42.1913 5.47029 42.1355 5.47029H41.9303C41.8367 5.47029 41.7719 5.37669 41.8061 5.28849C42.4829 3.56047 43.1238 2.05025 43.7988 0.320426C43.8546 0.178224 43.914 0.043222 44.0796 2.14686e-05H44.2128C44.3856 -0.00177855 44.4468 0.109823 44.5044 0.255625C45.615 3.09606 46.731 5.9365 47.8452 8.77513C47.9208 8.96594 47.9154 8.97134 47.7192 8.97494Z" fill="white"/>
<path d="M46.7383 0.00109863C46.9255 0.0478992 46.9867 0.202701 47.0479 0.359303C47.5861 1.73632 48.1333 3.11154 48.6643 4.49216C49.1773 5.82597 49.7065 7.15439 50.2339 8.48281C50.2825 8.60521 50.3149 8.73481 50.3545 8.86081C50.3797 8.97421 50.3365 9.01381 50.2213 8.99581C50.1565 8.98501 50.0881 8.99401 50.0233 8.99401C49.9207 8.93281 49.8865 8.82661 49.8433 8.72401C49.0621 6.82859 48.3565 4.90436 47.5951 3.00174C47.2243 2.07293 46.8679 1.13871 46.5007 0.209901C46.4269 0.0208989 46.5961 0.0550993 46.6699 0.00109863C46.6933 0.00109863 46.7149 0.00109863 46.7383 0.00109863Z" fill="white"/>
<path d="M46.4721 6.97812C46.4649 7.07893 46.4253 7.13653 46.3137 7.14913C45.9879 7.18873 45.6621 7.16353 45.3381 7.16893C45.2535 7.17073 44.7386 7.17073 44.0906 7.16893C43.9394 7.16893 43.781 7.16893 43.619 7.16893C43.5056 7.16893 43.3904 7.16893 43.2752 7.16893C43.1132 7.16893 42.9512 7.16893 42.791 7.16713C42.7658 7.16713 42.7172 7.16713 42.6614 7.16713C42.5264 7.16713 42.4058 7.24813 42.3536 7.37233C42.3356 7.41553 42.3212 7.44973 42.3176 7.46233C42.2636 7.60093 42.2096 7.73773 42.1574 7.87634C42.0512 8.15174 41.9468 8.42894 41.8424 8.70615C41.801 8.81775 41.747 8.91675 41.657 8.99595H41.4914C41.27 8.92035 41.27 8.92035 41.3564 8.70255C41.4644 8.42714 41.5724 8.15174 41.6786 7.87814C41.7326 7.73953 41.7866 7.60273 41.8406 7.46413C41.8802 7.36513 41.918 7.26613 41.9558 7.16713C41.9936 7.06993 42.0116 7.03032 42.0476 6.93312C42.1142 6.75312 42.2852 6.72792 42.4436 6.72792H43.4444C43.5614 6.72792 43.6766 6.72792 43.7882 6.72792H44.2598C44.8646 6.72792 45.3363 6.72792 45.4245 6.72792C45.6945 6.72792 45.9663 6.72432 46.2363 6.72972C46.4145 6.73332 46.4847 6.81612 46.4721 6.97812Z" fill="white"/>
<path d="M44.3792 2.22292C43.9364 3.34973 43.5278 4.25874 43.085 5.38556C43.0652 5.43596 43.0166 5.47016 42.9608 5.47016H42.7682C42.6746 5.47016 42.6098 5.37656 42.644 5.28836C43.1336 4.03734 43.589 3.00593 44.0804 1.75491C44.1092 1.68291 44.1074 1.56051 44.201 1.55691C44.2928 1.55331 44.3324 1.66491 44.3738 1.74051C44.4602 1.89891 44.4422 2.06272 44.3792 2.22292Z" fill="white"/>
<path d="M44.8061 3.27705C44.5235 3.99165 44.2751 4.48666 43.9943 5.20127C43.9691 5.26247 43.9457 5.32547 43.9205 5.38847C43.9007 5.43887 43.8521 5.47307 43.7963 5.47307H43.5983C43.5047 5.47307 43.4399 5.37947 43.4741 5.29127C43.8287 4.38406 44.1473 3.69465 44.5037 2.78744C44.5253 2.73164 44.5325 2.65244 44.5955 2.63804C44.6675 2.62364 44.7089 2.69564 44.7503 2.74604C44.8871 2.90984 44.8799 3.08984 44.8061 3.27705Z" fill="white"/>
<path d="M43.561 8.02408C43.6546 8.02408 43.7194 8.11768 43.6852 8.20408C43.6186 8.37328 43.5538 8.54248 43.4872 8.71169C43.4476 8.81609 43.399 8.91329 43.318 8.99249H43.1524C42.9417 8.90429 42.9399 8.90429 43.0263 8.68649C43.1019 8.49388 43.1776 8.30128 43.2532 8.10688C43.273 8.05648 43.3216 8.02228 43.3774 8.02228L43.561 8.02408Z" fill="white"/>
<path d="M45.2007 4.38006C45.0369 4.78866 44.9109 4.97766 44.7471 5.38627C44.7273 5.43667 44.6787 5.46907 44.6247 5.46907H44.4303C44.3367 5.46907 44.2719 5.37547 44.3061 5.28727C44.5221 4.73646 44.7021 4.40526 44.9181 3.85445C44.9397 3.79685 44.9379 3.70325 45.0207 3.70145C45.0891 3.69965 45.1269 3.77345 45.1647 3.82745C45.2907 4.00385 45.2763 4.18925 45.2007 4.38006Z" fill="white"/>
<path d="M48.4428 8.97523C48.324 9.00223 48.2556 8.93923 48.2052 8.80962C47.091 5.95839 45.9732 3.10715 44.8572 0.257715C44.832 0.194714 44.7618 0.119113 44.8752 0.0597122C44.9958 -0.0014886 45.1902 0.0165116 45.2568 0.108313C45.2982 0.165914 45.327 0.232514 45.354 0.299115C45.9732 1.83634 46.5744 3.38256 47.1738 4.92697C47.6292 6.10239 48.0972 7.27241 48.558 8.44422C48.594 8.53602 48.6318 8.62962 48.657 8.72502C48.7146 8.94463 48.6876 8.97523 48.4428 8.97523Z" fill="white"/>
<path d="M49.2851 8.9723C49.1627 8.9993 49.0889 8.9381 49.0349 8.8013C47.9243 5.95546 46.8083 3.10963 45.6941 0.26379C45.6707 0.202589 45.6095 0.135988 45.7013 0.0747873C45.8129 0.00278642 46.0073 0.00998651 46.0883 0.0963876C46.1495 0.162988 46.1783 0.24759 46.2107 0.330391C46.6319 1.4176 47.0369 2.51202 47.4743 3.59203C48.1385 5.23005 48.7415 6.89507 49.4237 8.5259C49.4543 8.5961 49.4813 8.6699 49.4957 8.7455C49.5389 8.9561 49.5227 8.9723 49.2851 8.9723Z" fill="white"/>
<path d="M46.6715 7.87378C46.2629 7.87738 45.8542 7.87558 45.4456 7.87558C45.2908 7.87558 44.6176 7.87558 43.8166 7.87558H43.1614C43.066 7.87558 42.9796 7.93498 42.9454 8.02319C42.8518 8.26259 42.76 8.50019 42.6664 8.73959C42.6286 8.8386 42.5836 8.9322 42.49 8.9934H42.3568C42.3244 8.9826 42.2956 8.97 42.2632 8.9628C42.1372 8.9376 42.1228 8.871 42.1678 8.75939C42.2866 8.46419 42.4018 8.17079 42.517 7.87378C42.5512 7.78558 42.5872 7.69558 42.6214 7.60738C42.6556 7.51738 42.742 7.45978 42.8374 7.45978H43.507C43.6636 7.45978 43.822 7.45978 43.9786 7.45978C45.0982 7.45978 46.1423 7.45978 46.4483 7.46158C46.6391 7.46158 46.7795 7.59658 46.8047 7.78738C46.8191 7.91158 46.7237 7.87378 46.6715 7.87378Z" fill="white"/>
<path d="M45.9973 6.35157C45.8101 6.35337 45.6229 6.35157 45.4339 6.35157H42.0985C42.0031 6.35157 41.9167 6.41097 41.8825 6.50097C41.8537 6.57657 41.8249 6.65217 41.7943 6.72777C41.7385 6.87357 41.6827 7.01937 41.6251 7.16338C41.5873 7.26238 41.5477 7.36138 41.5099 7.46038C41.4559 7.59898 41.4019 7.73758 41.3479 7.87439C41.2381 8.15519 41.1247 8.43419 41.0131 8.7132C40.9663 8.8284 40.9159 8.9364 40.7953 8.9922H40.6621C40.4335 8.9256 40.4335 8.9256 40.5127 8.7222C40.6243 8.43959 40.7341 8.15699 40.8457 7.87439C40.8997 7.73578 40.9537 7.59898 41.0077 7.46038C41.0473 7.36138 41.0869 7.26058 41.1247 7.15978C41.1805 7.01577 41.2381 6.87177 41.2939 6.72777C41.3425 6.60177 41.3929 6.47577 41.4415 6.35157C41.4775 6.26156 41.5117 6.17156 41.5477 6.08156C41.5819 5.99336 41.6683 5.93396 41.7637 5.93396C41.8645 5.93396 41.9779 5.93396 42.1003 5.93396C42.2083 5.93396 42.3217 5.93396 42.4405 5.93396C42.5917 5.93396 42.7537 5.93396 42.9193 5.93396C43.0363 5.93396 43.1533 5.93396 43.2739 5.93396C43.4341 5.93396 43.5961 5.93396 43.7581 5.93396H44.1037C44.2675 5.93396 44.4277 5.93396 44.5807 5.93396C45.2467 5.93396 45.7777 5.93396 45.8875 5.93576C46.0099 5.93756 46.1161 5.97716 46.1647 6.10496C46.2295 6.27416 46.1791 6.34977 45.9973 6.35157Z" fill="white"/>
<path d="M5.15002 5.09521C5.61263 5.09521 6.00863 4.9332 6.33444 4.6092C6.66024 4.28339 6.82404 3.85319 6.82404 3.31678C6.82404 2.88118 6.65664 2.49417 6.31824 2.15397C5.98163 1.81376 5.59103 1.64276 5.14822 1.64276H2.01618C1.73898 1.64276 1.51578 1.86596 1.51578 2.14317V3.28438C1.51578 3.38878 1.60038 3.47158 1.70298 3.47158H1.70658C1.81098 3.47158 1.89378 3.38698 1.89378 3.28438V2.20977C1.89378 2.10537 1.97838 2.02257 2.08098 2.02257H5.14642C5.48303 2.02257 5.78363 2.15577 6.04643 2.42037C6.30924 2.68497 6.44064 2.98558 6.44064 3.31858C6.44064 3.76499 6.31464 4.11059 6.06443 4.3536C5.81423 4.5984 5.50823 4.719 5.14642 4.719H1.26017C0.982969 4.719 0.759766 4.9422 0.759766 5.21941V8.65925C0.759766 8.76365 0.844367 8.84645 0.946968 8.84645H0.950568C1.05497 8.84645 1.13777 8.76185 1.13777 8.65925V5.28421C1.13777 5.17981 1.22237 5.097 1.32497 5.097H5.15002V5.09521Z" fill="white"/>
<path d="M5.14987 4.33725C5.76007 4.33725 6.06608 3.99704 6.06608 3.31483C6.06608 3.07003 5.97608 2.85583 5.79427 2.67222C5.61427 2.48862 5.39827 2.39862 5.14987 2.39862H2.77564C2.49843 2.39862 2.27523 2.62182 2.27523 2.89903V3.28243C2.27523 3.38683 2.35983 3.46963 2.46243 3.46963H2.46603C2.57043 3.46963 2.65323 3.38503 2.65323 3.28243V2.96563C2.65323 2.86123 2.73783 2.77843 2.84044 2.77843H5.14807C5.29927 2.77843 5.42707 2.83063 5.52967 2.93143C5.63227 3.03403 5.68447 3.16183 5.68447 3.31663C5.68447 3.55604 5.63767 3.72164 5.54227 3.81704C5.44687 3.91244 5.31547 3.95924 5.14807 3.95924H0.500406C0.225003 3.95924 0 4.18244 0 4.45965V8.6573C0 8.7617 0.0846011 8.8445 0.187202 8.8445H0.190802C0.295204 8.8445 0.378005 8.7599 0.378005 8.6573V4.52445C0.378005 4.42005 0.462606 4.33725 0.565207 4.33725H5.14987Z" fill="white"/>
<path d="M5.15002 5.85146C5.58203 5.85146 5.98343 5.74345 6.35244 5.52745C6.72324 5.31145 7.02025 5.00724 7.24525 4.61664C7.47025 4.22423 7.58185 3.79043 7.58185 3.31342C7.58185 2.89222 7.47025 2.49441 7.24705 2.11821C7.02384 1.742 6.72504 1.4414 6.34884 1.2182C5.97263 0.993193 5.57303 0.881592 5.14822 0.881592H1.26017C0.982969 0.881592 0.759766 1.10479 0.759766 1.382V3.28102C0.759766 3.38542 0.844367 3.46823 0.946968 3.46823H0.950568C1.05497 3.46823 1.13777 3.38362 1.13777 3.28102V1.4486C1.13777 1.3442 1.22237 1.2614 1.32677 1.2614H5.15002C5.69363 1.2614 6.17243 1.4684 6.58464 1.8824C6.99684 2.29641 7.20205 2.77342 7.20205 3.31522C7.20205 3.73283 7.10665 4.10903 6.91584 4.44204C6.72504 4.77504 6.47304 5.03064 6.16343 5.20885C5.85203 5.38525 5.51363 5.47525 5.15002 5.47525H2.01618C1.73898 5.47525 1.51578 5.69845 1.51578 5.97566V8.65589C1.51578 8.76029 1.60038 8.84309 1.70298 8.84309H1.70658C1.81098 8.84309 1.89378 8.75849 1.89378 8.65589V6.03866C1.89378 5.93426 1.97838 5.85146 2.08098 5.85146H5.15002Z" fill="white"/>
<path d="M7.9039 1.74057C7.6123 1.24916 7.22169 0.856755 6.73029 0.563351C6.23888 0.269947 5.71147 0.124146 5.14987 0.124146H0.500406C0.225003 0.124146 0 0.347348 0 0.624552V3.28139C0 3.38579 0.0846011 3.46859 0.187202 3.46859H0.190802C0.295204 3.46859 0.378005 3.38399 0.378005 3.28139V0.691153C0.378005 0.586751 0.462606 0.50395 0.565207 0.50395H5.14807C5.64307 0.50395 6.10748 0.633552 6.54128 0.890955C6.97509 1.14836 7.32069 1.49576 7.5763 1.92957C7.8337 2.36337 7.9615 2.82598 7.9615 3.31559C7.9615 3.72599 7.8859 4.113 7.7347 4.4766C7.5835 4.84021 7.38189 5.14801 7.12629 5.40361C6.87069 5.65922 6.57188 5.86082 6.22808 6.00842C5.88427 6.15782 5.52427 6.23162 5.14807 6.23162H2.77564C2.49843 6.23162 2.27523 6.45483 2.27523 6.73203V8.65445C2.27523 8.75886 2.35983 8.84166 2.46243 8.84166H2.46603C2.57043 8.84166 2.65323 8.75706 2.65323 8.65445V6.79863C2.65323 6.69423 2.73783 6.61143 2.84044 6.61143H5.14807C5.57647 6.61143 5.98328 6.53583 6.37028 6.38283C6.75729 6.22982 7.09569 6.01562 7.38729 5.73842C7.6789 5.46121 7.9093 5.11381 8.0821 4.6926C8.25491 4.2732 8.33951 3.81419 8.33951 3.31559C8.33951 2.75758 8.1937 2.23197 7.9039 1.74057Z" fill="white"/>
</svg>
