<svg width="129" height="166" viewBox="0 0 129 166" fill="none" xmlns="http://www.w3.org/2000/svg">
<path opacity="0.12" d="M13.494 165.378V108.171H0.0390625V91.0316H13.494V74.3559H0.0390625V57.2169H13.494V0.0098877H49.9151L68.0097 57.2169H89.12V0.0098877H114.87V57.2169H128.093V74.3559H114.87V91.0316H128.093V108.171H114.87V165.378H78.2169L59.6584 108.171H39.244V165.378H13.494ZM38.3161 57.2169H44.8115L38.0841 34.9826H37.1561L38.3161 57.2169ZM39.244 91.0316H54.5548L49.4512 74.3559H38.78L39.244 91.0316ZM78.9129 91.0316H89.584L89.12 74.3559H73.5773L78.9129 91.0316ZM89.816 129.247H90.9759L90.048 108.171H83.7845L89.816 129.247Z" fill="#006156"/>
</svg>
